<svg xmlns="http://www.w3.org/2000/svg" width="153" height="140" viewBox="0 0 153 140" version="1.1"><path d="M 105 14.437 C 105 21.874, 105 21.874, 101.727 21.343 C 99.419 20.969, 97.773 21.363, 96.145 22.681 C 93.896 24.503, 93.832 25.027, 93.668 43.119 C 93.536 57.753, 93.797 62.046, 94.900 63.377 C 96.047 64.762, 97.799 65.015, 104.634 64.783 C 109.219 64.627, 113.105 64.050, 113.272 63.500 C 113.438 62.950, 113.507 61.150, 113.424 59.500 C 113.341 57.850, 113.212 45.363, 113.137 31.750 C 113 7, 113 7, 109 7 C 105 7, 105 7, 105 14.437 M 33.308 22.010 C 28.426 23.976, 27.839 26.554, 28.182 44.519 C 28.490 60.640, 28.577 61.243, 30.861 63.091 C 34.175 65.771, 42.281 65.719, 45 63 C 46.619 61.381, 47 59.667, 47 54 C 47 47, 47 47, 43 47 C 39 47, 39 47, 39 52.500 C 39 55.525, 38.550 58, 38 58 C 37.378 58, 37 52.333, 37 43 C 37 33.667, 37.378 28, 38 28 C 38.550 28, 39 30.475, 39 33.500 C 39 39, 39 39, 43 39 C 47 39, 47 39, 47 32.073 C 47 25.780, 46.759 24.955, 44.365 23.073 C 41.628 20.920, 37.096 20.484, 33.308 22.010 M 52.923 23.923 C 50.451 26.395, 50 27.639, 50 31.983 C 50 37.121, 50 37.121, 53.750 36.810 C 57.390 36.509, 57.509 36.375, 57.807 32.250 C 58.236 26.329, 60 26.911, 60 32.974 C 60 37.585, 59.762 38.068, 56.750 39.582 C 50.935 42.505, 50.047 44.494, 50.022 54.643 C 50.004 62.072, 50.297 63.900, 51.582 64.393 C 54.189 65.393, 58.519 65.081, 59.800 63.800 C 60.733 62.867, 61 62.867, 61 63.800 C 61 65.104, 66.582 65.485, 67.355 64.234 C 68.154 62.942, 68.451 27.638, 67.683 25.402 C 65.964 20.400, 57.313 19.533, 52.923 23.923 M 77 21.913 L 71.500 22.500 71.500 43.500 C 71.500 64.500, 71.500 64.500, 74.895 64.824 C 76.937 65.019, 78.625 64.621, 79.130 63.824 C 79.592 63.096, 79.976 54.989, 79.985 45.809 C 79.994 35.778, 80.399 28.871, 81 28.500 C 82.131 27.801, 82.284 30.188, 82.412 50.500 C 82.500 64.500, 82.500 64.500, 86.500 64.500 C 90.500 64.500, 90.500 64.500, 90.772 44.603 C 91.117 19.318, 91.737 20.340, 77 21.913 M 121.091 22.090 C 116.399 23.966, 116.064 25.396, 116.064 43.500 C 116.064 56.603, 116.388 60.928, 117.477 62.367 C 119.016 64.399, 126.204 65.668, 130.321 64.634 C 133.355 63.873, 136.238 58.140, 135.811 53.720 C 135.520 50.704, 135.230 50.480, 131.250 50.193 C 127 49.885, 127 49.885, 127 53.943 C 127 57.800, 125.853 59.189, 124.489 56.983 C 124.143 56.423, 124.169 53.498, 124.545 50.483 C 125.230 45, 125.230 45, 130.115 45 C 135 45, 135 45, 135 35.455 C 135 26.653, 134.809 25.718, 132.545 23.455 C 129.927 20.836, 125.535 20.313, 121.091 22.090 M 102.639 28.694 C 102.288 29.046, 102 35.783, 102 43.667 C 102 55.741, 102.236 58, 103.500 58 C 104.764 58, 105 55.729, 105 43.559 C 105 30.413, 104.441 26.892, 102.639 28.694 M 124.441 30.379 C 123.586 33.786, 124.287 38.276, 125.750 38.756 C 126.650 39.052, 127 37.602, 127 33.583 C 127 27.905, 125.525 26.058, 124.441 30.379 M 57.767 48.750 C 57.355 51.090, 57.386 53.003, 57.919 58.309 C 57.963 58.754, 58.450 58.840, 59 58.500 C 60.228 57.741, 60.345 46, 59.125 46 C 58.644 46, 58.033 47.237, 57.767 48.750" stroke="none" fill="#dd4b43" fill-rule="evenodd"/><path d="M 51.872 23.750 C 50.629 25.336, 50.664 25.371, 52.250 24.128 C 53.212 23.373, 54 22.585, 54 22.378 C 54 21.555, 53.179 22.084, 51.872 23.750 M 58.333 28.667 C 58.700 29.033, 59.300 29.033, 59.667 28.667 C 60.033 28.300, 59.733 28, 59 28 C 58.267 28, 57.967 28.300, 58.333 28.667 M 93 32 C 93 32.733, 93.300 33.033, 93.667 32.667 C 94.033 32.300, 94.033 31.700, 93.667 31.333 C 93.300 30.967, 93 31.267, 93 32 M 68.195 34.500 C 68.215 36.150, 68.439 36.704, 68.693 35.731 C 68.947 34.758, 68.930 33.408, 68.656 32.731 C 68.382 32.054, 68.175 32.850, 68.195 34.500 M 82.252 39.500 C 82.263 41.700, 82.468 42.482, 82.707 41.238 C 82.946 39.994, 82.937 38.194, 82.687 37.238 C 82.437 36.282, 82.241 37.300, 82.252 39.500 M 125.333 38.667 C 125.700 39.033, 126.300 39.033, 126.667 38.667 C 127.033 38.300, 126.733 38, 126 38 C 125.267 38, 124.967 38.300, 125.333 38.667 M 41.762 39.707 C 43.006 39.946, 44.806 39.937, 45.762 39.687 C 46.718 39.437, 45.700 39.241, 43.500 39.252 C 41.300 39.263, 40.518 39.468, 41.762 39.707 M 67.996 51.704 C 67.723 58.965, 67.852 64.553, 68.282 64.121 C 68.712 63.689, 68.935 57.748, 68.778 50.918 L 68.491 38.500 67.996 51.704 M 93.158 45 C 93.158 46.375, 93.385 46.938, 93.662 46.250 C 93.940 45.563, 93.940 44.438, 93.662 43.750 C 93.385 43.063, 93.158 43.625, 93.158 45 M 49.343 54.500 C 49.346 58.900, 49.522 60.576, 49.733 58.224 C 49.945 55.872, 49.942 52.272, 49.727 50.224 C 49.512 48.176, 49.339 50.100, 49.343 54.500 M 57.079 51.583 C 57.127 52.748, 57.364 52.985, 57.683 52.188 C 57.972 51.466, 57.936 50.603, 57.604 50.271 C 57.272 49.939, 57.036 50.529, 57.079 51.583 M 106.750 64.689 C 105.679 64.969, 105 66.105, 105 67.619 C 105 69.895, 104.727 70.039, 101.555 69.444 C 98.685 68.906, 97.674 69.235, 95.493 71.417 C 92.874 74.035, 92.874 74.035, 93.187 92.108 C 93.495 109.921, 93.535 110.209, 95.956 112.168 C 97.674 113.557, 99.177 113.958, 100.956 113.501 C 102.355 113.142, 105.574 112.901, 108.108 112.966 C 112.717 113.084, 112.717 113.084, 113.358 108.402 C 114.407 100.750, 114.104 68.063, 112.965 65.934 C 111.961 64.058, 110.378 63.741, 106.750 64.689 M 36.250 65.689 C 37.212 65.941, 38.788 65.941, 39.750 65.689 C 40.712 65.438, 39.925 65.232, 38 65.232 C 36.075 65.232, 35.288 65.438, 36.250 65.689 M 54.813 65.683 C 55.534 65.972, 56.397 65.936, 56.729 65.604 C 57.061 65.272, 56.471 65.036, 55.417 65.079 C 54.252 65.127, 54.015 65.364, 54.813 65.683 M 98.750 65.662 C 99.438 65.940, 100.563 65.940, 101.250 65.662 C 101.938 65.385, 101.375 65.158, 100 65.158 C 98.625 65.158, 98.063 65.385, 98.750 65.662 M 124.269 65.693 C 125.242 65.947, 126.592 65.930, 127.269 65.656 C 127.946 65.382, 127.150 65.175, 125.500 65.195 C 123.850 65.215, 123.296 65.439, 124.269 65.693 M 21 70.752 C 17.500 72.500, 17.500 72.500, 17.229 91.076 C 16.968 108.926, 17.040 109.726, 19.084 111.576 C 22.286 114.474, 31.176 114.268, 34.222 111.225 C 36.369 109.081, 36.518 108.041, 36.816 93.212 C 37.177 75.170, 36.571 72.554, 31.538 70.452 C 27.042 68.573, 25.259 68.624, 21 70.752 M 56.500 69.918 L 50.500 70.500 50.500 91.500 C 50.500 112.500, 50.500 112.500, 54.750 112.807 C 59 113.115, 59 113.115, 59 95.057 C 59 83.970, 59.377 77, 59.977 77 C 60.566 77, 61.062 84.049, 61.227 94.750 C 61.500 112.500, 61.500 112.500, 65.750 112.807 C 70 113.115, 70 113.115, 70 92.614 C 70 72.563, 69.951 72.079, 67.777 70.557 C 66.555 69.701, 64.868 69.076, 64.027 69.168 C 63.187 69.261, 59.800 69.598, 56.500 69.918 M 83.631 69.702 C 83.245 70.088, 80.583 70.426, 77.715 70.452 L 72.500 70.500 72.500 89.724 C 72.500 108.397, 72.565 109.013, 74.778 111.224 C 76.533 112.978, 78.190 113.500, 82 113.500 C 88.821 113.500, 91.156 111.095, 91.354 103.869 C 91.500 98.500, 91.500 98.500, 87.500 98.500 C 83.515 98.500, 83.498 98.517, 82.900 103 C 82.300 107.500, 82.300 107.500, 82.176 102 C 82.053 96.559, 82.093 96.481, 85.869 94.743 C 90.822 92.462, 92 89.632, 92 80.010 C 92 72.984, 91.755 71.942, 89.777 70.557 C 87.420 68.906, 84.793 68.540, 83.631 69.702 M 39 97.500 C 39 125.115, 39 125.115, 43.250 124.807 C 47.500 124.500, 47.500 124.500, 47.500 97.500 C 47.500 70.500, 47.500 70.500, 43.250 70.193 C 39 69.885, 39 69.885, 39 97.500 M 25.223 91.503 C 25.592 110.842, 27.408 110.842, 27.777 91.503 C 28.016 78.937, 27.846 77, 26.500 77 C 25.154 77, 24.984 78.937, 25.223 91.503 M 81.843 82.501 C 81.654 85.527, 81.838 88.002, 82.250 88.001 C 82.662 88.001, 83 85.525, 83 82.500 C 83 75.401, 82.285 75.402, 81.843 82.501 M 102.223 91.410 C 102.591 110.785, 104.500 111.140, 104.500 91.833 C 104.500 81.228, 104.179 77.560, 103.223 77.241 C 102.217 76.906, 102.004 79.918, 102.223 91.410" stroke="none" fill="#d2b16b" fill-rule="evenodd"/></svg>